<?xml version="1.0" encoding="UTF-8" standalone="no"?>
<!DOCTYPE svg PUBLIC "-//W3C//DTD SVG 1.1//EN" "http://www.w3.org/Graphics/SVG/1.1/DTD/svg11.dtd">
<svg width="100%" height="100%" viewBox="0 0 1044 972" version="1.1" xmlns="http://www.w3.org/2000/svg" xmlns:xlink="http://www.w3.org/1999/xlink" xml:space="preserve" xmlns:serif="http://www.serif.com/" style="fill-rule:evenodd;clip-rule:evenodd;stroke-miterlimit:10;">
    <g>
        <g>
            <path d="M225.88,185.41L256.34,201C300.24,223.46 284.26,289.76 234.95,289.76L174.03,289.76C124.72,289.76 108.74,223.46 152.64,201L183.1,185.41C196.53,178.53 212.45,178.53 225.88,185.41Z" style="fill:rgb(216,17,89);fill-rule:nonzero;stroke:black;stroke-width:20px;"/>
            <path d="M224.94,234.61L279.33,247.9C303.96,253.92 299.6,290.18 274.24,290.18L165.46,290.18C140.1,290.18 135.74,253.92 160.37,247.9L214.76,234.61C218.11,233.8 221.6,233.8 224.94,234.61Z" style="fill:rgb(255,233,244);fill-rule:nonzero;stroke:black;stroke-width:20px;"/>
            <path d="M274.6,57.61C274.78,57.83 274.92,58.1 275.01,58.39C276.85,64.33 297.68,129.55 328.72,142.33C360.65,155.48 382.56,195.71 382.56,195.71C391.77,207.5 391,225.63 381.06,230.75L298.09,273.46C289.39,277.94 278.41,270.02 274.38,257.62C273.47,254.81 273.17,251.88 273.34,249.11C273.68,243.27 273.89,230.11 269.57,222.3C235,159.75 248.39,71.59 248.39,71.59C253.49,37.33 262.56,42.66 274.6,57.61Z" style="fill:rgb(252,246,243);fill-rule:nonzero;stroke:black;stroke-width:20px;"/>
        </g>
        <g>
            <path d="M865.52,185.41L835.06,201C791.16,223.46 807.14,289.76 856.45,289.76L917.37,289.76C966.68,289.76 982.66,223.46 938.76,201L908.3,185.41C894.86,178.53 878.95,178.53 865.52,185.41Z" style="fill:rgb(216,17,89);fill-rule:nonzero;stroke:black;stroke-width:20px;"/>
            <path d="M866.45,234.61L812.06,247.9C787.43,253.92 791.79,290.18 817.15,290.18L925.94,290.18C951.3,290.18 955.66,253.92 931.03,247.9L876.64,234.61C873.29,233.8 869.8,233.8 866.45,234.61Z" style="fill:rgb(255,233,244);fill-rule:nonzero;stroke:black;stroke-width:20px;"/>
            <path d="M816.79,57.61C816.61,57.83 816.47,58.1 816.38,58.39C814.54,64.33 793.71,129.55 762.67,142.33C730.74,155.48 708.83,195.71 708.83,195.71C699.62,207.5 700.39,225.63 710.33,230.75L793.3,273.46C802,277.94 812.98,270.02 817.01,257.62C817.92,254.81 818.22,251.88 818.05,249.11C817.71,243.27 817.5,230.11 821.82,222.3C856.4,159.75 843,71.59 843,71.59C837.9,37.33 828.84,42.66 816.79,57.61Z" style="fill:rgb(252,246,243);fill-rule:nonzero;stroke:black;stroke-width:20px;"/>
        </g>
    </g>
    <ellipse cx="549" cy="463.5" rx="306" ry="319.5" style="fill:rgb(0,165,207);stroke:black;stroke-width:20px;"/>
    <ellipse cx="544.5" cy="661.5" rx="382.5" ry="220.5" style="fill:rgb(255,233,244);stroke:black;stroke-width:20px;"/>
    <g>
        <g>
            <circle cx="365.42" cy="653.42" r="58.42" style="stroke:black;stroke-width:20px;"/>
        </g>
        <g>
            <circle cx="723.55" cy="653.42" r="58.42" style="stroke:black;stroke-width:20px;"/>
        </g>
    </g>
    <g>
        <g>
            <circle cx="404.96" cy="332.96" r="62.96" style="fill:white;stroke:black;stroke-width:20px;"/>
        </g>
        <g>
            <circle cx="673.99" cy="332.96" r="62.96" style="fill:white;stroke:black;stroke-width:20px;"/>
        </g>
    </g>
    <g>
        <g>
            <circle cx="414" cy="342" r="36" style="stroke:black;stroke-width:20px;"/>
        </g>
        <g>
            <circle cx="666.09" cy="342" r="36" style="stroke:black;stroke-width:20px;"/>
        </g>
    </g>
    <ellipse cx="247.5" cy="472.5" rx="22.5" ry="193.5" style="fill:rgb(249,201,86);stroke:black;stroke-width:20px;"/>
    <g>
        <path d="M405,162C499.377,162 576,238.623 576,333C576,427.377 499.377,504 405,504C310.623,504 234,427.377 234,333C234,238.623 310.623,162 405,162ZM405,218.641C468.116,218.641 519.359,269.884 519.359,333C519.359,396.116 468.116,447.359 405,447.359C341.884,447.359 290.641,396.116 290.641,333C290.641,269.884 341.884,218.641 405,218.641Z" style="fill:rgb(249,201,86);stroke:black;stroke-width:20px;"/>
    </g>
</svg>
